<?xml version="1.0" standalone="no"?>
<!DOCTYPE svg PUBLIC "-//W3C//DTD SVG 20010904//EN"
 "http://www.w3.org/TR/2001/REC-SVG-20010904/DTD/svg10.dtd">
<svg version="1.0" xmlns="http://www.w3.org/2000/svg"
 width="2058.000000pt" height="600.000000pt" viewBox="0 0 2058.000000 600.000000"
 preserveAspectRatio="xMidYMid meet">

<g transform="translate(0.000000,600.000000) scale(0.100000,-0.100000)"
fill="#000000" stroke="none">
<path d="M5765 4659 c-32 -5 -65 -14 -72 -21 -16 -16 -33 -131 -33 -223 0
-108 -10 -118 -195 -179 -60 -21 -147 -55 -192 -77 -127 -60 -130 -60 -276 75
l-124 114 -106 -99 c-117 -110 -227 -240 -227 -268 0 -25 74 -123 144 -191 31
-30 56 -61 56 -68 0 -22 -157 -374 -190 -425 -16 -25 -40 -53 -53 -62 -28 -18
-104 -31 -229 -41 l-88 -6 0 -228 0 -229 33 -5 c17 -3 75 -8 127 -11 118 -8
160 -18 188 -48 12 -13 40 -77 62 -143 22 -65 61 -162 86 -216 34 -70 45 -103
40 -122 -3 -14 -58 -81 -121 -149 l-114 -124 152 -151 c84 -82 168 -157 185
-166 30 -16 34 -15 73 5 23 11 81 59 130 106 l90 86 87 -47 c144 -78 245 -126
318 -150 92 -30 102 -50 116 -230 l11 -134 41 -6 c23 -3 120 -8 216 -12 224
-8 220 -10 230 128 8 105 33 199 59 221 9 8 48 24 86 35 39 12 96 32 128 45
l59 24 -114 103 c-122 111 -182 154 -238 171 -19 6 -111 14 -205 19 -93 4
-202 15 -240 23 -340 72 -622 341 -716 683 -32 118 -37 319 -11 444 49 235
184 468 350 606 81 67 218 136 327 166 69 19 107 22 280 22 228 1 273 -7 414
-75 117 -55 200 -116 311 -229 99 -100 145 -166 187 -270 42 -106 54 -184 63
-430 8 -227 13 -270 40 -321 14 -27 230 -249 242 -249 4 0 21 46 39 103 35
114 73 196 92 198 6 1 64 2 127 3 133 2 183 18 201 63 11 26 4 426 -7 444 -2
4 -48 10 -102 14 -218 15 -237 25 -272 148 -41 141 -72 223 -112 289 -29 50
-39 74 -34 92 3 13 42 57 86 97 82 74 120 123 120 154 0 60 -293 355 -352 355
-26 0 -86 -43 -177 -124 -48 -43 -82 -66 -98 -66 -13 0 -66 22 -117 50 -50 27
-141 68 -201 90 -60 22 -117 48 -127 57 -16 14 -18 31 -16 127 3 125 -10 162
-70 202 -58 40 -221 54 -367 33z"/>
<path d="M8535 4346 c-28 -67 -35 -344 -35 -1471 0 -642 4 -1187 10 -1278 10
-159 27 -233 52 -225 56 18 61 163 61 1503 0 1340 -5 1485 -61 1503 -7 2 -19
-12 -27 -32z"/>
<path d="M12532 3946 c-281 -54 -482 -191 -547 -375 -60 -170 -31 -357 75
-488 27 -34 50 -64 50 -66 0 -3 -47 -28 -104 -56 -82 -40 -118 -64 -168 -114
-183 -185 -222 -399 -111 -619 32 -65 141 -179 216 -226 143 -90 279 -126 472
-126 121 0 153 4 239 27 55 15 156 54 226 87 158 75 179 77 255 14 31 -25 75
-52 98 -61 89 -32 509 -39 654 -12 67 13 81 30 58 66 -29 44 -168 185 -323
326 l-144 130 64 66 c35 36 87 92 117 123 l54 57 -72 85 c-40 47 -99 110 -132
140 -109 102 -173 96 -303 -25 -41 -38 -77 -69 -81 -69 -22 0 -444 405 -486
466 -42 62 -45 85 -13 123 33 40 93 71 136 71 42 0 82 -25 181 -112 44 -39
105 -82 136 -97 54 -25 63 -26 231 -26 167 0 177 1 225 25 66 33 81 72 60 155
-60 230 -274 413 -573 492 -121 32 -371 41 -490 19z m-42 -1303 c38 -25 75
-60 152 -145 l69 -77 -61 -31 c-79 -40 -145 -48 -204 -26 -54 21 -103 73 -111
119 -9 46 19 111 63 147 42 34 58 37 92 13z"/>
<path d="M9415 3868 c-3 -7 -4 -449 -3 -983 l3 -970 237 1 c314 1 342 11 373
129 11 45 15 115 15 297 l0 238 163 0 c89 0 196 -5 237 -10 63 -9 79 -15 107
-42 43 -42 116 -148 183 -268 29 -52 85 -143 123 -202 58 -88 77 -110 106
-120 52 -19 512 -18 565 1 37 13 38 15 33 52 -15 114 -292 593 -420 726 -33
35 -58 65 -56 66 2 2 40 23 84 47 107 58 139 83 186 149 53 74 79 161 79 267
0 247 -167 461 -431 551 -187 64 -438 82 -1147 83 -337 0 -434 -3 -437 -12z
m1177 -468 c81 -13 121 -34 157 -85 40 -55 48 -93 27 -133 -53 -102 -211 -138
-552 -126 l-201 7 -7 81 c-3 44 -9 123 -12 174 l-7 92 269 0 c148 0 295 -4
326 -10z"/>
<path d="M14243 3859 c-23 -5 -47 -17 -55 -26 -17 -21 -23 -567 -13 -1330 l7
-563 607 0 c356 0 642 4 691 10 270 33 573 220 698 432 41 68 95 218 117 324
22 102 23 294 2 390 -67 303 -245 530 -522 665 -118 57 -186 74 -355 89 -171
15 -1123 22 -1177 9z m957 -459 c185 -13 230 -28 296 -96 62 -65 118 -168 139
-255 33 -140 11 -318 -54 -446 -40 -80 -70 -114 -128 -146 -91 -49 -166 -60
-550 -83 l-113 -6 0 527 0 527 138 -6 c75 -4 198 -11 272 -16z"/>
<path d="M5742 3574 c-57 -13 -37 -48 129 -220 222 -230 216 -316 -36 -521
-109 -89 -112 -90 -172 -60 -74 38 -147 98 -253 208 -108 113 -131 122 -151
62 -16 -50 -5 -237 21 -338 26 -101 61 -155 169 -257 146 -139 255 -185 472
-197 203 -12 216 -20 534 -320 382 -360 464 -419 534 -381 68 36 12 124 -261
408 -313 325 -402 431 -391 470 23 89 171 -14 548 -378 242 -233 304 -282 331
-259 23 19 44 65 44 97 0 54 -35 99 -324 407 -219 233 -282 309 -316 379 -26
54 -31 75 -36 181 -11 212 -53 345 -153 476 -94 125 -192 195 -313 224 -63 15
-331 28 -376 19z"/>
</g>
</svg>
