<?xml version="1.0" standalone="no"?>
<!DOCTYPE svg PUBLIC "-//W3C//DTD SVG 20010904//EN"
 "http://www.w3.org/TR/2001/REC-SVG-20010904/DTD/svg10.dtd">
<svg version="1.0" xmlns="http://www.w3.org/2000/svg"
 width="494.000000pt" height="494.000000pt" viewBox="0 0 494.000000 494.000000"
 preserveAspectRatio="xMidYMid meet">

<g transform="translate(0.000000,494.000000) scale(0.100000,-0.100000)"
fill="#000000" stroke="none">
<path d="M1367 2863 c-4 -3 -7 -23 -7 -44 0 -36 -3 -39 -37 -49 -21 -6 -49
-17 -63 -25 -23 -13 -27 -12 -58 18 l-32 31 -40 -39 c-22 -21 -40 -44 -40 -49
0 -5 11 -22 25 -36 l25 -26 -27 -62 c-26 -59 -29 -61 -68 -64 l-40 -3 0 -55 0
-55 42 -3 c40 -3 43 -6 53 -40 6 -20 17 -48 25 -62 13 -23 12 -27 -18 -58
l-31 -32 39 -40 c21 -22 44 -40 49 -40 5 0 22 11 37 25 l26 26 48 -26 c26 -14
54 -25 61 -25 8 0 14 -16 16 -42 l3 -43 58 -3 c54 -3 57 -2 57 20 0 33 11 68
21 68 4 0 19 4 34 10 l25 10 -38 35 c-35 31 -45 35 -96 35 -68 0 -119 20 -165
63 -73 69 -92 178 -47 272 43 91 112 135 211 135 66 0 108 -16 159 -60 57 -50
76 -96 76 -183 0 -70 1 -74 34 -106 l34 -33 12 40 c10 31 16 38 31 35 10 -3
30 -2 44 1 25 6 26 10 23 64 l-3 57 -41 3 c-40 3 -42 5 -52 45 -6 23 -17 51
-25 61 -13 18 -11 22 14 44 16 13 29 29 29 36 0 14 -71 86 -85 86 -5 0 -21
-12 -37 -26 -25 -25 -29 -26 -50 -12 -13 8 -39 20 -59 27 -32 10 -35 14 -31
41 6 44 -12 60 -68 60 -25 0 -50 -3 -53 -7z"/>
<path d="M2040 2440 c0 -313 2 -360 15 -360 13 0 15 47 15 360 0 313 -2 360
-15 360 -13 0 -15 -47 -15 -360z"/>
<path d="M2965 2685 c-60 -21 -95 -65 -95 -119 0 -28 7 -52 19 -68 l20 -25
-35 -16 c-40 -20 -74 -70 -74 -112 0 -119 158 -185 285 -120 49 24 49 24 70 5
18 -17 35 -20 108 -20 62 0 87 4 87 12 0 7 -26 36 -57 64 l-58 52 28 30 28 30
-31 36 c-37 42 -55 45 -87 14 l-23 -21 -53 49 c-75 69 -84 84 -61 101 26 19
36 17 72 -17 28 -25 41 -30 86 -30 68 0 83 15 63 62 -38 91 -175 134 -292 93z
m60 -325 l28 -29 -25 -12 c-47 -21 -90 25 -56 59 17 17 21 16 53 -18z"/>
<path d="M2260 2445 l0 -235 69 0 c79 0 81 2 81 103 l0 57 49 0 c27 0 57 -3
65 -6 9 -3 33 -36 53 -73 20 -36 42 -69 47 -73 16 -11 144 -10 151 2 7 11 -66
144 -97 177 l-20 21 32 17 c66 34 73 130 13 188 -50 47 -99 57 -279 57 l-164
0 0 -235z m314 109 c43 -43 -4 -76 -100 -72 l-69 3 -3 43 -3 42 80 0 c59 0 84
-4 95 -16z"/>
<path d="M3405 2668 c-3 -7 -4 -112 -3 -233 l3 -220 165 0 c161 0 166 1 223
28 67 33 100 77 117 151 23 104 -23 206 -113 253 -49 26 -60 27 -219 31 -136
3 -169 1 -173 -10z m321 -131 c30 -35 40 -89 25 -136 -18 -60 -42 -75 -127
-79 l-74 -4 0 127 0 127 76 -4 c68 -3 79 -6 100 -31z"/>
<path d="M1370 2603 c0 -5 18 -27 40 -48 50 -48 51 -74 5 -114 -20 -17 -38
-31 -41 -31 -14 0 -50 26 -72 51 -36 43 -45 37 -40 -26 4 -44 11 -62 34 -86
41 -43 76 -59 129 -59 44 0 49 -4 134 -85 48 -47 95 -85 104 -85 39 0 24 27
-57 109 -47 47 -86 92 -86 99 0 30 41 5 121 -74 83 -82 88 -85 98 -65 11 19 3
30 -74 111 -81 86 -85 92 -85 135 0 57 -19 102 -59 139 -25 24 -42 30 -91 34
-33 2 -60 0 -60 -5z"/>
</g>
</svg>
